<svg width="30" height="30" viewBox="0 0 30 30" fill="none" xmlns="http://www.w3.org/2000/svg"><path d="M15 30C23.2843 30 30 23.2843 30 15C30 6.71573 23.2843 0 15 0C6.71573 0 0 6.71573 0 15C0 23.2843 6.71573 30 15 30Z" fill="#213147"/><path d="M15 5L9.5 13L15 10L20.5 13L15 5Z" fill="#9DCCED"/><path d="M15 18.5L9.5 13L15 16L20.5 13L15 18.5Z" fill="#36669A"/><path d="M15 10V16L20.5 13L15 10Z" fill="#2278BD"/><path d="M9.5 13L15 10V16L9.5 13Z" fill="#5194D3"/><path d="M15 25L9 15L15 18.5L21 15L15 25Z" fill="#2278BD"/></svg>
